<svg xmlns="http://www.w3.org/2000/svg" viewBox="0 0 800 400" font-family="Arial, Helvetica, sans-serif">
  <defs>
    <linearGradient id="ec" x1="0" y1="0" x2="1" y2="1">
      <stop offset="0" stop-color="#34d399"/><stop offset="1" stop-color="#22d3ee"/>
    </linearGradient>
    <linearGradient id="area" x1="0" y1="0" x2="0" y2="1">
      <stop offset="0" stop-color="#34d399" stop-opacity="0.45"/>
      <stop offset="1" stop-color="#34d399" stop-opacity="0"/>
    </linearGradient>
    <radialGradient id="glow" cx="22%" cy="-10%" r="90%">
      <stop offset="0" stop-color="#0e2a33"/><stop offset="55%" stop-color="#080b11"/>
    </radialGradient>
  </defs>

  <!-- background -->
  <rect width="800" height="400" fill="url(#glow)"/>

  <!-- sidebar -->
  <rect x="12" y="12" width="140" height="376" rx="14" fill="#0d131c" stroke="#1b2430"/>
  <rect x="28" y="24" width="28" height="28" rx="8" fill="url(#ec)"/>
  <circle cx="38" cy="35" r="2.4" fill="#06121a"/><circle cx="46" cy="35" r="2.4" fill="#06121a"/><circle cx="42" cy="42" r="2.4" fill="#06121a"/>
  <text x="64" y="43" fill="#f1f5f9" font-size="14" font-weight="700">StockPilot</text>
  <rect x="112" y="60" width="34" height="15" rx="7.5" fill="#34d39922" stroke="#34d39955"/>
  <text x="129" y="71" fill="#34d399" font-size="8" font-family="monospace" text-anchor="middle" letter-spacing="1">DEMO</text>

  <!-- nav -->
  <rect x="22" y="92" width="120" height="30" rx="9" fill="#34d39915"/>
  <rect x="22" y="92" width="3" height="30" rx="1.5" fill="url(#ec)"/>
  <rect x="34" y="101" width="13" height="13" rx="3" fill="none" stroke="#34d399" stroke-width="1.6"/>
  <text x="56" y="111" fill="#f1f5f9" font-size="11">Dashboard</text>
  <rect x="34" y="135" width="13" height="13" rx="3" fill="none" stroke="#64748b" stroke-width="1.6"/>
  <text x="56" y="145" fill="#94a3b8" font-size="11">Productos</text>
  <rect x="34" y="169" width="13" height="13" rx="3" fill="none" stroke="#64748b" stroke-width="1.6"/>
  <text x="56" y="179" fill="#94a3b8" font-size="11">Punto de venta</text>
  <rect x="34" y="203" width="13" height="13" rx="3" fill="none" stroke="#64748b" stroke-width="1.6"/>
  <text x="56" y="213" fill="#94a3b8" font-size="11">Asistente IA</text>
  <text x="34" y="372" fill="#64748b" font-size="11">⎋  Cerrar sesión</text>

  <!-- header -->
  <text x="176" y="40" fill="#f1f5f9" font-size="26" font-weight="700">Dashboard</text>
  <text x="178" y="60" fill="#94a3b8" font-size="12">Tu negocio en tiempo real, con un copiloto que entiende tus datos.</text>

  <!-- KPI cards -->
  <g>
    <rect x="176" y="78" width="145" height="86" rx="12" fill="#0e141d" stroke="#1b2430"/>
    <rect x="190" y="92" width="26" height="26" rx="8" fill="#34d39915"/>
    <rect x="196" y="100" width="14" height="10" rx="2" fill="none" stroke="#34d399" stroke-width="1.5"/>
    <text x="190" y="142" fill="#f1f5f9" font-size="22" font-weight="700" font-family="monospace">$754</text>
    <text x="190" y="157" fill="#94a3b8" font-size="10.5">Valor de inventario</text>

    <rect x="329" y="78" width="145" height="86" rx="12" fill="#0e141d" stroke="#1b2430"/>
    <rect x="343" y="92" width="26" height="26" rx="8" fill="#34d39915"/>
    <rect x="349" y="99" width="13" height="12" rx="2" fill="none" stroke="#34d399" stroke-width="1.5"/>
    <text x="343" y="142" fill="#f1f5f9" font-size="22" font-weight="700" font-family="monospace">8</text>
    <text x="343" y="157" fill="#94a3b8" font-size="10.5">Productos</text>

    <rect x="482" y="78" width="145" height="86" rx="12" fill="#0e141d" stroke="#1b2430"/>
    <rect x="496" y="92" width="26" height="26" rx="8" fill="#34d39915"/>
    <path d="M502 110 l4 -4 3 3 5 -6" fill="none" stroke="#34d399" stroke-width="1.5"/>
    <text x="496" y="136" fill="#f1f5f9" font-size="22" font-weight="700" font-family="monospace">$224</text>
    <text x="496" y="151" fill="#94a3b8" font-size="10.5">Ventas del mes</text>
    <text x="496" y="161" fill="#64748b" font-size="8.5">20 ventas</text>

    <rect x="635" y="78" width="145" height="86" rx="12" fill="#0e141d" stroke="#1b2430"/>
    <rect x="649" y="92" width="26" height="26" rx="8" fill="#fbbf2418"/>
    <path d="M662 99 l6 11 -12 0 z" fill="none" stroke="#fbbf24" stroke-width="1.4" stroke-linejoin="round"/>
    <text x="649" y="140" fill="#f1f5f9" font-size="22" font-weight="700" font-family="monospace">3</text>
    <text x="649" y="155" fill="#94a3b8" font-size="10.5">Stock bajo</text>
  </g>

  <!-- sales chart panel -->
  <rect x="176" y="178" width="410" height="210" rx="14" fill="#0e141d" stroke="#1b2430"/>
  <text x="196" y="204" fill="#f1f5f9" font-size="12.5" font-weight="600">Ventas · últimos 7 días</text>
  <rect x="528" y="192" width="40" height="16" rx="8" fill="#34d39915"/>
  <text x="548" y="204" fill="#34d399" font-size="9" text-anchor="middle">live</text>
  <!-- gridlines -->
  <g stroke="#ffffff" stroke-opacity="0.06" stroke-dasharray="3 3">
    <line x1="206" y1="220" x2="568" y2="220"/>
    <line x1="206" y1="253.75" x2="568" y2="253.75"/>
    <line x1="206" y1="287.5" x2="568" y2="287.5"/>
    <line x1="206" y1="321.25" x2="568" y2="321.25"/>
  </g>
  <g fill="#64748b" font-size="9" font-family="monospace" text-anchor="end">
    <text x="200" y="223">80</text><text x="200" y="257">60</text>
    <text x="200" y="291">40</text><text x="200" y="324">20</text>
  </g>
  <!-- area + line -->
  <path d="M210,324.6 C219.67,323.48 248.67,329.71 268,317.9 C287.33,306.09 306.5,256.57 326,253.75 C345.5,250.93 365.5,293.69 385,301 C404.5,308.31 423.67,303.23 443,297.6 C462.33,291.98 481.5,259.93 501,267.25 C520.5,274.57 550.17,329.13 560,341.5 L560,355 L210,355 Z" fill="url(#area)"/>
  <path d="M210,324.6 C219.67,323.48 248.67,329.71 268,317.9 C287.33,306.09 306.5,256.57 326,253.75 C345.5,250.93 365.5,293.69 385,301 C404.5,308.31 423.67,303.23 443,297.6 C462.33,291.98 481.5,259.93 501,267.25 C520.5,274.57 550.17,329.13 560,341.5" fill="none" stroke="#34d399" stroke-width="2.5"/>
  <g fill="#64748b" font-size="9" font-family="monospace" text-anchor="middle">
    <text x="210" y="370">06-23</text><text x="268" y="370">06-24</text><text x="326" y="370">06-25</text>
    <text x="385" y="370">06-26</text><text x="443" y="370">06-27</text><text x="501" y="370">06-28</text><text x="560" y="370">06-29</text>
  </g>

  <!-- top products panel -->
  <rect x="598" y="178" width="182" height="210" rx="14" fill="#0e141d" stroke="#1b2430"/>
  <text x="616" y="204" fill="#f1f5f9" font-size="12.5" font-weight="600">Más vendidos</text>
  <g font-size="10.5">
    <text x="616" y="228" fill="#e2e8f0">Leche entera 1L</text><text x="762" y="228" fill="#94a3b8" font-family="monospace" text-anchor="end">13</text>
    <rect x="616" y="233" width="146" height="4" rx="2" fill="#ffffff10"/><rect x="616" y="233" width="146" height="4" rx="2" fill="url(#ec)"/>
    <text x="616" y="258" fill="#e2e8f0">Agua mineral 600ml</text><text x="762" y="258" fill="#94a3b8" font-family="monospace" text-anchor="end">12</text>
    <rect x="616" y="263" width="146" height="4" rx="2" fill="#ffffff10"/><rect x="616" y="263" width="135" height="4" rx="2" fill="url(#ec)"/>
    <text x="616" y="288" fill="#e2e8f0">Chocolate barra 90g</text><text x="762" y="288" fill="#94a3b8" font-family="monospace" text-anchor="end">8</text>
    <rect x="616" y="293" width="146" height="4" rx="2" fill="#ffffff10"/><rect x="616" y="293" width="90" height="4" rx="2" fill="url(#ec)"/>
    <text x="616" y="318" fill="#e2e8f0">Servilletas · pack</text><text x="762" y="318" fill="#94a3b8" font-family="monospace" text-anchor="end">7</text>
    <rect x="616" y="323" width="146" height="4" rx="2" fill="#ffffff10"/><rect x="616" y="323" width="79" height="4" rx="2" fill="url(#ec)"/>
    <text x="616" y="348" fill="#e2e8f0">Galletas surtidas</text><text x="762" y="348" fill="#94a3b8" font-family="monospace" text-anchor="end">7</text>
    <rect x="616" y="353" width="146" height="4" rx="2" fill="#ffffff10"/><rect x="616" y="353" width="79" height="4" rx="2" fill="url(#ec)"/>
  </g>
</svg>
